<?xml version="1.0" encoding="utf-8"?>
<!-- Generator: Adobe Illustrator 21.1.0, SVG Export Plug-In . SVG Version: 6.00 Build 0)  -->
<svg version="1.1" id="Layer_1" xmlns="http://www.w3.org/2000/svg" xmlns:xlink="http://www.w3.org/1999/xlink" x="0px" y="0px"
	 viewBox="0 0 100 100" style="enable-background:new 0 0 100 100;" xml:space="preserve">
<style type="text/css">
	.st0{fill:url(#XMLID_2_);}
	.st1{fill:url(#XMLID_3_);}
	.st2{fill:url(#XMLID_4_);}
	.st3{fill:url(#XMLID_5_);}
	.st4{fill:url(#XMLID_6_);}
	.st5{fill:url(#XMLID_7_);}
</style>
<g id="XMLID_214_">
	<linearGradient id="XMLID_2_" gradientUnits="userSpaceOnUse" x1="30.8" y1="74.1" x2="30.8" y2="64.1">
		<stop  offset="0" style="stop-color:#8F7A3E"/>
		<stop  offset="1" style="stop-color:#AD974F"/>
	</linearGradient>
	<path id="XMLID_25_" class="st0" d="M30.1,64.1h-2.2v10h2.2c1.1,0,2-0.4,2.6-1.1c0.6-0.7,1-1.7,1-2.9V68c0-1.2-0.3-2.1-1-2.8
		C32,64.5,31.2,64.1,30.1,64.1z"/>
	<linearGradient id="XMLID_3_" gradientUnits="userSpaceOnUse" x1="33" y1="81.9" x2="33" y2="55.7">
		<stop  offset="0" style="stop-color:#8F7A3E"/>
		<stop  offset="1" style="stop-color:#AD974F"/>
	</linearGradient>
	<path id="XMLID_20_" class="st1" d="M64.8,55.7H1.2v26.2h54L64.8,55.7z M21.5,69.7c-0.9,0.8-2,1.2-3.5,1.2h-3V76h-2.3V62.3H18
		c1.5,0,2.7,0.4,3.5,1.2c0.9,0.8,1.3,1.8,1.3,3.1C22.8,67.9,22.4,68.9,21.5,69.7z M35.9,70.2c0,1.7-0.5,3.1-1.6,4.2S31.8,76,30.1,76
		h-4.5V62.3h4.5c1.7,0,3.1,0.5,4.2,1.6c1.1,1.1,1.6,2.5,1.6,4.2V70.2z M47.8,64.1h-6.5v4.2h5.5v1.8h-5.5V76H39V62.3h8.8V64.1z"/>
	<linearGradient id="XMLID_4_" gradientUnits="userSpaceOnUse" x1="17.75" y1="69" x2="17.75" y2="64.1">
		<stop  offset="0" style="stop-color:#8F7A3E"/>
		<stop  offset="1" style="stop-color:#AD974F"/>
	</linearGradient>
	<path id="XMLID_19_" class="st2" d="M18,64.1h-3V69h3c0.8,0,1.5-0.2,1.9-0.7c0.4-0.4,0.6-1,0.6-1.7s-0.2-1.3-0.6-1.7
		C19.4,64.4,18.8,64.1,18,64.1z"/>
	<linearGradient id="XMLID_5_" gradientUnits="userSpaceOnUse" x1="48.7" y1="98.7" x2="48.7" y2="1">
		<stop  offset="0" style="stop-color:#8F7A3E"/>
		<stop  offset="1" style="stop-color:#AD974F"/>
	</linearGradient>
	<path id="XMLID_18_" class="st3" d="M62.4,1L62.4,1h-48c-1.4,0-2.6,1.2-2.6,2.6v50.2H17V6.2h45.4v18h18v69.3H17v-9.7h-5.2v12.3
		c0,1.4,1.2,2.6,2.6,2.6H83c1.4,0,2.6-1.2,2.6-2.6V24.2L62.4,1z"/>
	<linearGradient id="XMLID_6_" gradientUnits="userSpaceOnUse" x1="48.65" y1="37.1" x2="48.65" y2="33.3">
		<stop  offset="0" style="stop-color:#8F7A3E"/>
		<stop  offset="1" style="stop-color:#AD974F"/>
	</linearGradient>
	<rect id="XMLID_17_" x="23.9" y="33.3" class="st4" width="49.5" height="3.8"/>
	<linearGradient id="XMLID_7_" gradientUnits="userSpaceOnUse" x1="44.75" y1="44.6" x2="44.75" y2="40.8">
		<stop  offset="0" style="stop-color:#8F7A3E"/>
		<stop  offset="1" style="stop-color:#AD974F"/>
	</linearGradient>
	<rect id="XMLID_16_" x="23.9" y="40.8" class="st5" width="41.7" height="3.8"/>
</g>
</svg>
