<?xml version="1.0" encoding="utf-8"?>
<!-- Generator: Adobe Illustrator 21.1.0, SVG Export Plug-In . SVG Version: 6.00 Build 0)  -->
<svg version="1.1" id="Layer_1" xmlns="http://www.w3.org/2000/svg" xmlns:xlink="http://www.w3.org/1999/xlink" x="0px" y="0px"
	 viewBox="0 0 100 100" style="enable-background:new 0 0 100 100;" xml:space="preserve">
<style type="text/css">
	.st0{fill:url(#SVGID_1_);}
</style>
<linearGradient id="SVGID_1_" gradientUnits="userSpaceOnUse" x1="49.75" y1="85.9" x2="49.75" y2="13.5">
	<stop  offset="0" style="stop-color:#8F7A3E"/>
	<stop  offset="1" style="stop-color:#AD974F"/>
</linearGradient>
<path class="st0" d="M90,21.5v56.3H9.5V21.5H90z M98,13.5H1.5v72.4H98V13.5z M57.8,68.2v1.6H17.6v-1.7c0-4.5,0.2-7,5.3-8.2
	c5.6-1.3,11.2-2.5,8.5-7.4c-7.9-14.6-2.3-22.9,6.2-22.9c8.4,0,14.2,8,6.3,22.9c-2.6,4.9,2.8,6.1,8.5,7.4
	C57.6,61.1,57.8,63.7,57.8,68.2z M81.9,29.6H65.8v8h16.1V29.6z M81.9,45.7H65.8v8h16.1V45.7z M81.9,61.7H65.8v8h16.1V61.7z"/>
</svg>
